<svg width="40" height="40" viewBox="0 0 40 40" fill="none" xmlns="http://www.w3.org/2000/svg">
<path d="M40 20.0002C40 26.6034 34.6667 32.0002 28 32.0002C21.3968 32.0002 16 26.6034 16 20.0002C16 13.3971 21.3333 8.00024 27.9365 8.00024C34.6667 8.00024 40 13.3971 40 20.0002Z" fill="#A7A7B6"/>
<path d="M11.873 8.00024C5.33333 8.06374 0 13.3971 0 20.0002C0 26.6034 5.33333 32.0002 12 32.0002C15.1111 32.0002 17.9048 30.7939 20.0635 28.8891C20.5079 28.5082 20.8889 28.0637 21.2698 27.6193H18.7937C18.4762 27.2383 18.1587 26.7939 17.9048 26.4129H22.1587C22.4127 26.032 22.6667 25.5875 22.8571 25.1431H17.2064C17.0159 24.7621 16.8254 24.3177 16.6984 23.8733H23.3016C23.6825 22.6669 23.9365 21.3971 23.9365 20.0637C23.9365 19.1748 23.8095 18.3495 23.6825 17.5241H16.3175C16.381 17.0796 16.5079 16.6987 16.6349 16.2542H23.2381C23.1111 15.8098 22.9206 15.3653 22.7302 14.9844H17.1429C17.3333 14.5399 17.5873 14.159 17.8413 13.7145H22.0952C21.8413 13.2701 21.5238 12.8256 21.1429 12.4447H18.7937C19.1746 12.0002 19.5556 11.6193 20 11.2383C17.9048 9.27009 15.0476 8.12723 11.9365 8.12723C11.9365 8.00024 11.9365 8.00024 11.873 8.00024Z" fill="#686873"/>
<path d="M16.2538 23.0475L16.4443 21.9682C16.3808 21.9682 16.2538 22.0317 16.1268 22.0317C15.6824 22.0317 15.6189 21.7777 15.6824 21.6507L16.0633 19.4285H16.7618L16.9522 18.2221H16.3173L16.4443 17.4602H15.1745C15.1745 17.4602 14.4125 21.6507 14.4125 22.1586C14.4125 22.9206 14.857 23.238 15.4284 23.238C15.8094 23.238 16.1268 23.111 16.2538 23.0475Z" fill="#E0E0E9"/>
<path d="M16.6983 21.0159C16.6983 22.7937 17.9046 23.2381 18.9205 23.2381C19.8729 23.2381 20.2538 23.0477 20.2538 23.0477L20.5078 21.8413C20.5078 21.8413 19.8094 22.1588 19.1745 22.1588C17.7777 22.1588 18.0316 21.1429 18.0316 21.1429H20.6348C20.6348 21.1429 20.8253 20.3175 20.8253 20C20.8253 19.1746 20.3808 18.1588 18.984 18.1588C17.6507 18.0318 16.6983 19.4286 16.6983 21.0159ZM18.9205 19.1746C19.6189 19.1746 19.4919 20 19.4919 20.0635H18.0951C18.0951 20 18.2221 19.1746 18.9205 19.1746Z" fill="#E0E0E9"/>
<path d="M26.9841 23.0476L27.2381 21.6508C27.2381 21.6508 26.6032 21.9683 26.1587 21.9683C25.2698 21.9683 24.8889 21.2699 24.8889 20.508C24.8889 18.9842 25.6508 18.1588 26.5397 18.1588C27.1746 18.1588 27.6825 18.5397 27.6825 18.5397L27.873 17.2064C27.873 17.2064 27.1111 16.8889 26.4127 16.8889C24.9524 16.8889 23.492 18.1588 23.492 20.5715C23.492 22.1588 24.254 23.2381 25.7778 23.2381C26.2857 23.2381 26.9841 23.0476 26.9841 23.0476Z" fill="#E0E0E9"/>
<path d="M9.26984 18.0317C8.38095 18.0317 7.74603 18.2857 7.74603 18.2857L7.55556 19.3651C7.55556 19.3651 8.12699 19.1111 8.95238 19.1111C9.39683 19.1111 9.77778 19.1746 9.77778 19.5555C9.77778 19.8095 9.71429 19.873 9.71429 19.873C9.71429 19.873 9.33333 19.873 9.14286 19.873C8.06349 19.873 6.85715 20.3174 6.85715 21.7778C6.85715 22.9206 7.61905 23.1746 8.06349 23.1746C8.95238 23.1746 9.33333 22.6032 9.39683 22.6032L9.33333 23.1111H10.4762L10.9841 19.619C10.9841 18.0952 9.71429 18.0317 9.26984 18.0317ZM9.52381 20.8889C9.52381 21.0794 9.39683 22.0952 8.63492 22.0952C8.25397 22.0952 8.12699 21.7778 8.12699 21.5873C8.12699 21.2698 8.31746 20.8254 9.26984 20.8254C9.46032 20.8889 9.52381 20.8889 9.52381 20.8889Z" fill="#E0E0E9"/>
<path d="M12.1905 23.1746C12.5079 23.1746 14.0952 23.2381 14.0952 21.5238C14.0952 19.9365 12.5714 20.254 12.5714 19.6191C12.5714 19.3016 12.8254 19.1746 13.2698 19.1746C13.4603 19.1746 14.1587 19.2381 14.1587 19.2381L14.3492 18.0953C14.3492 18.0953 13.9047 17.9683 13.1428 17.9683C12.1905 17.9683 11.2381 18.3492 11.2381 19.6191C11.2381 21.0794 12.8254 20.9524 12.8254 21.5238C12.8254 21.9048 12.3809 21.9683 12.0635 21.9683C11.492 21.9683 10.9206 21.7778 10.9206 21.7778L10.7301 22.9207C10.7936 23.0476 11.1111 23.1746 12.1905 23.1746Z" fill="#E0E0E9"/>
<path d="M37.5237 17.0159L37.2697 18.7301C37.2697 18.7301 36.7618 18.0952 36.0634 18.0952C34.9205 18.0952 33.9047 19.492 33.9047 21.1428C33.9047 22.1587 34.4126 23.2381 35.492 23.2381C36.2539 23.2381 36.6983 22.7301 36.6983 22.7301L36.6348 23.1746H37.9047L38.857 17.0794L37.5237 17.0159ZM36.9523 20.3809C36.9523 21.0793 36.6348 21.9682 35.9364 21.9682C35.492 21.9682 35.238 21.5873 35.238 20.9524C35.238 19.9365 35.6824 19.3016 36.2539 19.3016C36.6983 19.3016 36.9523 19.619 36.9523 20.3809Z" fill="#E0E0E9"/>
<path d="M2.34917 23.1111L3.11108 18.5397L3.23806 23.1111H4.12695L5.77774 18.5397L5.07933 23.1111H6.41266L7.42854 17.0159H5.3333L4.06346 20.7619L3.99997 17.0159H2.1587L1.14282 23.1111H2.34917Z" fill="#E0E0E9"/>
<path d="M22.0318 23.1111C22.4127 21.0158 22.4762 19.3015 23.3651 19.619C23.4921 18.7936 23.6826 18.4761 23.8095 18.1587C23.8095 18.1587 23.746 18.1587 23.5556 18.1587C22.9841 18.1587 22.5397 18.9206 22.5397 18.9206L22.6667 18.2222H21.4603L20.6349 23.1746H22.0318V23.1111Z" fill="#E0E0E9"/>
<path d="M29.9048 18.0317C29.0159 18.0317 28.381 18.2857 28.381 18.2857L28.1905 19.3651C28.1905 19.3651 28.7619 19.1111 29.5873 19.1111C30.0317 19.1111 30.4127 19.1746 30.4127 19.5555C30.4127 19.8095 30.3492 19.873 30.3492 19.873C30.3492 19.873 29.9683 19.873 29.7778 19.873C28.6984 19.873 27.4921 20.3174 27.4921 21.7778C27.4921 22.9206 28.254 23.1746 28.6984 23.1746C29.5873 23.1746 29.9683 22.6032 30.0317 22.6032L29.9683 23.1111H31.1111L31.619 19.619C31.6825 18.0952 30.3492 18.0317 29.9048 18.0317ZM30.2222 20.8889C30.2222 21.0794 30.0952 22.0952 29.3333 22.0952C28.9524 22.0952 28.8254 21.7778 28.8254 21.5873C28.8254 21.2698 29.0159 20.8254 29.9683 20.8254C30.1587 20.8889 30.1587 20.8889 30.2222 20.8889Z" fill="#E0E0E9"/>
<path d="M32.6984 23.1111C33.0794 21.0158 33.1428 19.3015 34.0317 19.619C34.1587 18.7936 34.3492 18.4761 34.4762 18.1587C34.4762 18.1587 34.4127 18.1587 34.2222 18.1587C33.6508 18.1587 33.2063 18.9206 33.2063 18.9206L33.3333 18.2222H32.127L31.3016 23.1746H32.6984V23.1111Z" fill="#E0E0E9"/>
</svg>
