<svg width="40" height="40" viewBox="0 0 40 40" fill="none" xmlns="http://www.w3.org/2000/svg">
<g clip-path="url(#clip0)">
<path d="M14.6667 25.7462L16.6985 14.3176H19.8731L17.9048 25.7462H14.6667Z" fill="#686873"/>
<path d="M14.6667 25.7462L17.2699 14.3176H19.8731L17.9048 25.7462H14.6667Z" fill="#686873"/>
<path d="M29.3969 14.4445C28.762 14.1905 27.7461 13.9365 26.4763 13.9365C23.3017 13.9365 21.0159 15.5238 21.0159 17.8095C21.0159 19.5238 22.6033 20.4127 23.8731 20.9841C25.1429 21.5556 25.5239 21.9365 25.5239 22.4445C25.5239 23.2064 24.508 23.5873 23.6191 23.5873C22.3493 23.5873 21.6509 23.3968 20.5715 22.9524L20.1271 22.7619L19.6826 25.3651C20.4445 25.6826 21.8413 26 23.3017 26C26.6667 26 28.889 24.4127 28.889 22C28.889 20.6667 28.0636 19.6508 26.1588 18.8254C25.016 18.254 24.3175 17.9365 24.3175 17.3651C24.3175 16.8572 24.889 16.3492 26.1588 16.3492C27.2382 16.3492 28.0001 16.5397 28.5715 16.7937L28.889 16.9206L29.3969 14.4445Z" fill="#686873"/>
<path d="M29.3969 14.4445C28.762 14.1905 27.7461 13.9365 26.4763 13.9365C23.3017 13.9365 21.5874 15.5238 21.5874 17.8095C21.5874 19.5238 22.6033 20.4127 23.8731 20.9841C25.1429 21.5556 25.5239 21.9365 25.5239 22.4445C25.5239 23.2064 24.508 23.5873 23.6191 23.5873C22.3493 23.5873 21.6509 23.3968 20.5715 22.9524L20.1271 22.7619L19.6826 25.3651C20.4445 25.6826 21.8413 26 23.3017 26C26.6667 26 28.889 24.4127 28.889 22C28.889 20.6667 28.0636 19.6508 26.1588 18.8254C25.016 18.254 24.3175 17.9365 24.3175 17.3651C24.3175 16.8572 24.889 16.3492 26.1588 16.3492C27.2382 16.3492 28.0001 16.5397 28.5715 16.7937L28.889 16.9206L29.3969 14.4445Z" fill="#686873"/>
<path d="M34.8573 14.3176C34.0954 14.3176 33.5239 14.3811 33.2065 15.143L28.4446 25.7462H31.8732L32.5081 23.8414H36.5716L36.9525 25.7462H40.0001L37.3335 14.3176H34.8573ZM33.397 21.9367C33.5874 21.3652 34.6668 18.5716 34.6668 18.5716C34.6668 18.5716 34.9208 17.8732 35.1112 17.4287L35.3017 18.5081C35.3017 18.5081 35.9366 21.3652 36.0636 22.0002H33.397V21.9367Z" fill="#686873"/>
<path d="M35.6192 14.3176C34.8573 14.3176 34.2858 14.3811 33.9684 15.143L28.4446 25.7462H31.8732L32.5081 23.8414H36.5716L36.9525 25.7462H40.0001L37.3335 14.3176H35.6192ZM33.397 21.9367C33.6509 21.3018 34.6668 18.5716 34.6668 18.5716C34.6668 18.5716 34.9208 17.8732 35.1112 17.4287L35.3017 18.5081C35.3017 18.5081 35.9366 21.3652 36.0636 22.0002H33.397V21.9367Z" fill="#686873"/>
<path d="M8.82563 22.3174L8.50817 20.6666C7.93674 18.7618 6.09547 16.6666 4.06372 15.6507L6.92086 25.8094H10.3494L15.4923 14.3809H12.0637L8.82563 22.3174Z" fill="#686873"/>
<path d="M8.82563 22.3174L8.50817 20.6666C7.93674 18.7618 6.09547 16.6666 4.06372 15.6507L6.92086 25.8094H10.3494L15.4923 14.3809H12.6986L8.82563 22.3174Z" fill="#686873"/>
<path d="M0 14.3176L0.571429 14.4446C4.63492 15.397 7.42857 17.8097 8.50794 20.6668L7.36508 15.27C7.1746 14.5081 6.60318 14.3176 5.90476 14.3176H0Z" fill="#686873"/>
<path d="M12 21.9366L9.84124 19.7779L8.82537 22.1906L8.5714 20.6033C7.99997 18.6985 6.1587 16.6033 4.12695 15.5874L6.9841 25.7461H10.4127L12 21.9366Z" fill="#686873"/>
<path d="M17.9046 25.7463L15.1744 22.9526L14.6665 25.7463H17.9046Z" fill="#686873"/>
<path d="M25.2062 21.8096C25.4602 22.0635 25.5871 22.254 25.5236 22.508C25.5236 23.2699 24.5078 23.6508 23.6189 23.6508C22.349 23.6508 21.6506 23.4604 20.5713 23.0159L20.1268 22.8254L19.6824 25.4286C20.4443 25.7461 21.8411 26.0635 23.3014 26.0635C25.3332 26.0635 26.984 25.4921 27.9363 24.4762L25.2062 21.8096Z" fill="#686873"/>
<path d="M28.8889 25.7459H31.873L32.508 23.8412H36.5714L36.9524 25.7459H40L38.9207 21.111L35.1111 17.4285L35.3016 18.4443C35.3016 18.4443 35.9365 21.3015 36.0635 21.9364H33.3968C33.6508 21.3015 34.6667 18.5713 34.6667 18.5713C34.6667 18.5713 34.9207 17.8729 35.1111 17.4285" fill="#686873"/>
<path d="M0 14.3176C4.06349 15.27 7.49305 17.7542 8.57242 20.6113L7.52446 15.524C7.33399 14.7621 6.69907 14.3176 6.00065 14.3176H0Z" fill="#A7A7B6"/>
</g>
<defs>
<clipPath id="clip0">
<rect width="40" height="40" fill="white"/>
</clipPath>
</defs>
</svg>
