<svg width="16" height="10" viewBox="0 0 16 10" fill="none" xmlns="http://www.w3.org/2000/svg">
<path d="M15.3372 7.8071C14.8608 7.23572 14.3002 6.74807 13.7697 6.23024C13.2912 5.76349 13.261 5.49272 13.6457 4.954C14.0656 4.36604 14.5171 3.80063 14.9407 3.21532C15.3362 2.66831 15.7404 2.1228 15.9485 1.46785C16.0805 1.05117 15.9637 0.867118 15.5365 0.794162C15.4628 0.781394 15.3867 0.780731 15.3118 0.780731L12.7767 0.777747C12.4645 0.773104 12.2919 0.909234 12.1815 1.18597C12.0324 1.56004 11.8787 1.93377 11.7011 2.29474C11.2982 3.11318 10.8482 3.90426 10.2173 4.57413C10.0782 4.72187 9.92428 4.90857 9.69182 4.83164C9.40099 4.72552 9.31526 4.24633 9.32007 4.08433L9.31759 1.15828C9.26121 0.740274 9.16852 0.553903 8.7535 0.472656L6.12011 0.473154C5.76859 0.473154 5.59233 0.608952 5.40464 0.828816C5.29636 0.955827 5.2637 1.03823 5.48622 1.08035C5.92329 1.16325 6.16952 1.44613 6.23485 1.88436C6.33964 2.58458 6.33234 3.28761 6.27199 3.99065C6.25425 4.19592 6.21893 4.4007 6.13752 4.59237C6.01017 4.89365 5.80457 4.955 5.53447 4.76962C5.2899 4.60182 5.11812 4.36505 4.94999 4.12728C4.31842 3.23489 3.81452 2.27252 3.40364 1.26125C3.28492 0.969092 3.08015 0.792006 2.77058 0.787198C2.01001 0.775094 1.24927 0.773104 0.488704 0.787861C0.0310688 0.796483 -0.105393 1.01867 0.0809776 1.43353C0.909364 3.27617 1.83143 5.06758 3.03505 6.69949C3.65302 7.53699 4.36252 8.27634 5.27912 8.8003C6.31792 9.39423 7.43614 9.57298 8.61389 9.51793C9.16537 9.49206 9.33102 9.34863 9.35655 8.79897C9.3738 8.42292 9.41641 8.04901 9.60195 7.71109C9.78401 7.37947 10.0598 7.3163 10.3776 7.52257C10.5366 7.62587 10.6706 7.75735 10.7971 7.89597C11.1075 8.23555 11.4068 8.58541 11.729 8.91355C12.133 9.32476 12.6117 9.56767 13.2136 9.51809L15.5436 9.51859C15.919 9.49405 16.1136 9.03376 15.8981 8.61476C15.7467 8.32128 15.5481 8.05996 15.3372 7.8071Z" fill="#E0BD89"/>
</svg>
