<svg width="82" height="81" viewBox="0 0 82 81" fill="none" xmlns="http://www.w3.org/2000/svg">
<rect opacity="0.2" x="9" y="9" width="64" height="64" rx="32" fill="#E0BD89"/>
<mask id="path-2-inside-1" fill="white">
<path d="M13.1916 47.7297C12.0946 47.6007 11.3032 46.6049 11.505 45.519C12.4626 40.3652 14.7569 35.5398 18.1734 31.5336C22.0235 27.0189 27.1259 23.7473 32.8354 22.1325C38.5448 20.5177 44.6049 20.6322 50.2493 22.4616C55.8937 24.2909 60.8689 27.7529 64.5457 32.4098C68.2225 37.0667 70.4358 42.7094 70.9058 48.6242C71.3757 54.539 70.0811 60.4603 67.1858 65.6393C64.2904 70.8184 59.9243 75.0226 54.6395 77.7202C49.95 80.114 44.724 81.2262 39.4887 80.962C38.3855 80.9064 37.6006 79.9055 37.7296 78.8085L39.7152 61.9248C39.8442 60.8278 40.8462 60.0664 41.9447 59.9504C43.0366 59.8352 44.1039 59.5205 45.0919 59.0161C46.6773 58.2069 47.9871 56.9456 48.8557 55.3919C49.7243 53.8382 50.1127 52.0618 49.9717 50.2873C49.8308 48.5129 49.1668 46.8201 48.0637 45.423C46.9607 44.026 45.4681 42.9874 43.7748 42.4386C42.0815 41.8897 40.2634 41.8554 38.5506 42.3398C36.8378 42.8243 35.307 43.8058 34.152 45.1602C33.4323 46.0042 32.8785 46.9694 32.5131 48.0047C32.1455 49.0463 31.1723 49.8443 30.0753 49.7153L13.1916 47.7297Z"/>
</mask>
<path d="M13.1916 47.7297C12.0946 47.6007 11.3032 46.6049 11.505 45.519C12.4626 40.3652 14.7569 35.5398 18.1734 31.5336C22.0235 27.0189 27.1259 23.7473 32.8354 22.1325C38.5448 20.5177 44.6049 20.6322 50.2493 22.4616C55.8937 24.2909 60.8689 27.7529 64.5457 32.4098C68.2225 37.0667 70.4358 42.7094 70.9058 48.6242C71.3757 54.539 70.0811 60.4603 67.1858 65.6393C64.2904 70.8184 59.9243 75.0226 54.6395 77.7202C49.95 80.114 44.724 81.2262 39.4887 80.962C38.3855 80.9064 37.6006 79.9055 37.7296 78.8085L39.7152 61.9248C39.8442 60.8278 40.8462 60.0664 41.9447 59.9504C43.0366 59.8352 44.1039 59.5205 45.0919 59.0161C46.6773 58.2069 47.9871 56.9456 48.8557 55.3919C49.7243 53.8382 50.1127 52.0618 49.9717 50.2873C49.8308 48.5129 49.1668 46.8201 48.0637 45.423C46.9607 44.026 45.4681 42.9874 43.7748 42.4386C42.0815 41.8897 40.2634 41.8554 38.5506 42.3398C36.8378 42.8243 35.307 43.8058 34.152 45.1602C33.4323 46.0042 32.8785 46.9694 32.5131 48.0047C32.1455 49.0463 31.1723 49.8443 30.0753 49.7153L13.1916 47.7297Z" stroke="#E0BD89" stroke-width="4" mask="url(#path-2-inside-1)"/>
<mask id="path-3-inside-2" fill="white">
<path d="M32.2119 77.5853C31.8652 78.634 30.7308 79.2094 29.7075 78.7936C25.1851 76.9562 21.1694 74.0386 18.0187 70.2838C14.8681 66.5291 12.6921 62.0677 11.6678 57.295C11.4361 56.215 12.1997 55.1978 13.2927 55.0385L24.9966 53.3326C26.0897 53.1733 27.0912 53.9367 27.4026 54.9964C27.9518 56.8649 28.8823 58.6073 30.1433 60.11C31.4043 61.6128 32.9587 62.8318 34.7034 63.697C35.6929 64.1878 36.2708 65.3066 35.9241 66.3554L32.2119 77.5853Z"/>
</mask>
<path d="M32.2119 77.5853C31.8652 78.634 30.7308 79.2094 29.7075 78.7936C25.1851 76.9562 21.1694 74.0386 18.0187 70.2838C14.8681 66.5291 12.6921 62.0677 11.6678 57.295C11.4361 56.215 12.1997 55.1978 13.2927 55.0385L24.9966 53.3326C26.0897 53.1733 27.0912 53.9367 27.4026 54.9964C27.9518 56.8649 28.8823 58.6073 30.1433 60.11C31.4043 61.6128 32.9587 62.8318 34.7034 63.697C35.6929 64.1878 36.2708 65.3066 35.9241 66.3554L32.2119 77.5853Z" stroke="#E0BD89" stroke-width="4" mask="url(#path-3-inside-2)"/>
<path d="M68.9447 52.7584L51.9783 51.6909" stroke="#E0BD89" stroke-width="2"/>
<path d="M66.3352 62.9218L50.9531 55.6836" stroke="#E0BD89" stroke-width="2"/>
<path d="M60.1673 71.4113L48.53 59.0188" stroke="#E0BD89" stroke-width="2"/>
<path d="M51.3074 77.0337L45.0493 61.2275" stroke="#E0BD89" stroke-width="2"/>
<path d="M58 22.5001V5.00012C58 2.79098 59.7909 1.00012 62 1.00012H77C79.2091 1.00012 81 2.79098 81 5.00012V34.0001C81 36.2093 79.2091 38.0001 77 38.0001H73" stroke="#E0BD89" stroke-width="2" stroke-linecap="round"/>
<path d="M29 19.5001C29 20.0524 29.4477 20.5001 30 20.5001C30.5523 20.5001 31 20.0524 31 19.5001H29ZM52 19.5001C52 20.0524 52.4477 20.5001 53 20.5001C53.5523 20.5001 54 20.0524 54 19.5001H52ZM34 5.00012H49V3.00012H34V5.00012ZM31 19.5001V8.00012H29V19.5001H31ZM52 8.00012V19.5001H54V8.00012H52ZM49 5.00012C50.6569 5.00012 52 6.34327 52 8.00012H54C54 5.2387 51.7614 3.00012 49 3.00012V5.00012ZM34 3.00012C31.2386 3.00012 29 5.2387 29 8.00012H31C31 6.34327 32.3431 5.00012 34 5.00012V3.00012Z" fill="#E0BD89"/>
<path d="M10.5 39.0001C11.0523 39.0001 11.5 38.5524 11.5 38.0001C11.5 37.4478 11.0523 37.0001 10.5 37.0001V39.0001ZM23 22.0001C23 22.5524 23.4477 23.0001 24 23.0001C24.5523 23.0001 25 22.5524 25 22.0001H23ZM5 17.0001H20V15.0001H5V17.0001ZM2 34.0001V20.0001H0V34.0001H2ZM10.5 37.0001H5V39.0001H10.5V37.0001ZM23 20.0001V22.0001H25V20.0001H23ZM0 34.0001C0 36.7615 2.23858 39.0001 5 39.0001V37.0001C3.34315 37.0001 2 35.657 2 34.0001H0ZM20 17.0001C21.6569 17.0001 23 18.3433 23 20.0001H25C25 17.2387 22.7614 15.0001 20 15.0001V17.0001ZM5 15.0001C2.23858 15.0001 0 17.2387 0 20.0001H2C2 18.3433 3.34315 17.0001 5 17.0001V15.0001Z" fill="#E0BD89"/>
</svg>
