<svg width="81" height="80" viewBox="0 0 81 80" fill="none" xmlns="http://www.w3.org/2000/svg">
<rect opacity="0.2" x="8" y="8" width="64" height="64" rx="32" fill="#E0BD89"/>
<path d="M65 54.0712C65 53.5189 64.5523 53.0712 64 53.0712C63.4477 53.0712 63 53.5189 63 54.0712H65ZM63 18.7407C63 19.293 63.4477 19.7407 64 19.7407C64.5523 19.7407 65 19.293 65 18.7407H63ZM5 7H60V5H5V7ZM60 70H5V72H60V70ZM2 67V10H0V67H2ZM63 54.0712V67H65V54.0712H63ZM63 10V18.7407H65V10H63ZM5 70C3.34315 70 2 68.6569 2 67H0C0 69.7614 2.23858 72 5 72V70ZM60 72C62.7614 72 65 69.7614 65 67H63C63 68.6569 61.6569 70 60 70V72ZM60 7C61.6569 7 63 8.34315 63 10H65C65 7.23858 62.7614 5 60 5V7ZM5 5C2.23858 5 0 7.23858 0 10H2C2 8.34315 3.34315 7 5 7V5Z" fill="#E0BD89"/>
<path d="M4 13C4 11.8954 4.89543 11 6 11H51C52.1046 11 53 11.8954 53 13V64C53 65.1046 52.1046 66 51 66H6C4.89543 66 4 65.1046 4 64V13Z" stroke="#E0BD89" stroke-width="2"/>
<path d="M8 71V71C8 72.6569 9.34315 74 11 74V74C12.6569 74 14 72.6569 14 71V71" stroke="#E0BD89" stroke-width="2"/>
<path d="M50 71V71C50 72.6569 51.3431 74 53 74H54C55.6569 74 57 72.6569 57 71V71" stroke="#E0BD89" stroke-width="2"/>
<path d="M58.2855 24.1793L71.0372 20.7625C72.6579 20.3282 74.3237 21.29 74.758 22.9106L79.2136 39.5393C79.6478 41.16 78.6861 42.8258 77.0654 43.2601L57.2116 48.5799" stroke="#E0BD89" stroke-width="2" stroke-linecap="round"/>
<path d="M75.8399 47.3118L55.9861 52.6316" stroke="#E0BD89" stroke-width="2" stroke-linecap="round"/>
<path d="M57.9546 27.1097L66.1884 24.9034C66.8312 24.7312 67.4536 25.2117 67.6484 25.8174C67.9248 26.6771 68.5246 27.4374 69.399 27.9163C70.2801 28.3988 71.2823 28.5092 72.2108 28.2996C72.8634 28.1522 73.6203 28.4225 73.7858 29.0403L75.1832 34.2554C75.3482 34.8713 74.8316 35.4821 74.1954 35.6821C73.2913 35.9664 72.4835 36.5616 71.964 37.4162C71.4425 38.2741 71.3049 39.24 71.5014 40.1279C71.6395 40.7521 71.3413 41.4856 70.6953 41.6587L57.0479 45.3155" stroke="#E0BD89" stroke-width="2" stroke-linecap="round"/>
<path d="M57.9116 31.5541C58.724 31.5486 59.5486 31.7525 60.303 32.1881C62.5638 33.4934 63.3384 36.3843 62.0332 38.6451C61.1534 40.1688 59.5535 41.0174 57.9116 41.0092" stroke="#E0BD89" stroke-width="2" stroke-linecap="round"/>
<circle cx="28.5" cy="38.5" r="13.5" stroke="#E0BD89" stroke-width="2"/>
<path d="M33 34.5085C33 32.3317 30.9853 30.5671 28.5 30.5671C26.0147 30.5671 24 32.3317 24 34.5085C24 36.6852 25.9286 38.1214 28.5 38.4499C31.0714 38.7783 33 40.2145 33 42.3913C33 44.568 30.9853 46.3327 28.5 46.3327C26.0147 46.3327 24 44.568 24 42.3913M28.5 28V30.3761M28.5 46.4001V49" stroke="#E0BD89" stroke-width="2" stroke-linecap="round"/>
</svg>
