<svg width="82" height="81" viewBox="0 0 82 81" fill="none" xmlns="http://www.w3.org/2000/svg">
<rect opacity="0.2" x="9" y="8.99951" width="64" height="64" rx="32" fill="#E0BD89"/>
<path d="M39 52.5832V4.69348C39 3.03663 37.6569 1.69348 36 1.69348H4C2.34315 1.69348 1 3.03663 1 4.69348V64.6935C1 66.3503 2.34315 67.6935 4 67.6935H18.255" stroke="#E0BD89" stroke-width="2" stroke-linecap="round"/>
<path d="M43 53.6631V4.69348C43 3.03663 44.3431 1.69348 46 1.69348H78C79.6569 1.69348 81 3.03663 81 4.69348V69.6961C81 71.353 79.6569 72.6961 78 72.6961H51.8665" stroke="#E0BD89" stroke-width="2" stroke-linecap="round"/>
<rect x="49" y="11.9995" width="26" height="3" rx="1.5" stroke="#E0BD89" stroke-width="2"/>
<rect x="49" y="56.9995" width="26" height="8" rx="2" stroke="#E0BD89" stroke-width="2"/>
<path d="M56 25.038H68" stroke="#E0BD89" stroke-width="2" stroke-linecap="round"/>
<path d="M57.6548 32.9995H66.345" stroke="#E0BD89" stroke-width="2" stroke-linecap="round"/>
<path d="M54.3477 38.5339H69.6522" stroke="#E0BD89" stroke-width="2" stroke-linecap="round"/>
<path d="M56 45.1482H68" stroke="#E0BD89" stroke-width="2" stroke-linecap="round"/>
<rect x="7" y="11.9995" width="26" height="3" rx="1.5" stroke="#E0BD89" stroke-width="2"/>
<path d="M14 25.038H26" stroke="#E0BD89" stroke-width="2" stroke-linecap="round"/>
<path d="M15.6548 32.9995H24.345" stroke="#E0BD89" stroke-width="2" stroke-linecap="round"/>
<path d="M12.3477 38.5339H27.6522" stroke="#E0BD89" stroke-width="2" stroke-linecap="round"/>
<path d="M25.3148 71.9052C25.5909 72.3835 26.2025 72.5473 26.6808 72.2712C27.1591 71.9951 27.3229 71.3835 27.0468 70.9052L25.3148 71.9052ZM17.9156 57.0894L18.7816 56.5894L17.9156 57.0894ZM23.7196 53.7384L22.8536 54.2384L23.7196 53.7384ZM27.4047 60.1212L26.5387 60.6212L26.9615 61.3535L27.7538 61.0583L27.4047 60.1212ZM44.128 60.9205L43.262 61.4205L44.128 60.9205ZM27.0848 78.3161L27.7184 77.5424L27.0848 78.3161ZM19.1421 52.5119L18.6421 51.6459L19.1421 52.5119ZM27.0468 70.9052L18.7816 56.5894L17.0495 57.5894L25.3148 71.9052L27.0468 70.9052ZM22.8536 54.2384L26.5387 60.6212L28.2707 59.6212L24.5857 53.2384L22.8536 54.2384ZM27.7538 61.0583C29.9296 60.2476 33.354 59.3468 36.5179 59.1965C38.1 59.1213 39.5599 59.2369 40.747 59.607C41.9247 59.9741 42.7704 60.5691 43.262 61.4205L44.994 60.4205C44.18 59.0105 42.8436 58.1657 41.3422 57.6976C39.8503 57.2325 38.1342 57.1174 36.423 57.1987C33.0004 57.3614 29.3687 58.3223 27.0556 59.1841L27.7538 61.0583ZM43.262 61.4205C44.8834 64.2289 46.0906 66.9378 46.253 69.2841C46.3327 70.4343 46.1584 71.4653 45.6826 72.3778C45.2075 73.2888 44.3948 74.1529 43.0816 74.9111L44.0816 76.6431C45.6641 75.7295 46.7756 74.6072 47.4559 73.3025C48.1355 71.9993 48.3479 70.5852 48.2483 69.1459C48.0521 66.3132 46.6367 63.2657 44.994 60.4205L43.262 61.4205ZM43.0816 74.9111C40.204 76.5725 37.2616 78.0245 34.5507 78.6468C31.8544 79.2657 29.5398 79.034 27.7184 77.5424L26.4512 79.0897C28.9312 81.1207 31.9692 81.2914 34.9981 80.5961C38.0124 79.9042 41.1677 78.3255 44.0816 76.6431L43.0816 74.9111ZM27.7184 77.5424C25.6755 75.8694 24.2619 74.2789 23.6689 72.7851C23.3805 72.0584 23.2932 71.3722 23.4063 70.706C23.5196 70.0381 23.846 69.3211 24.4923 68.5534L22.9623 67.2654C22.1302 68.2538 21.6178 69.2904 21.4344 70.3715C21.2507 71.4542 21.4088 72.5123 21.81 73.523C22.5965 75.504 24.34 77.3607 26.4512 79.0897L27.7184 77.5424ZM19.6421 53.3779C20.7666 52.7287 22.2044 53.114 22.8536 54.2384L24.5857 53.2384C23.3842 51.1574 20.7232 50.4444 18.6421 51.6459L19.6421 53.3779ZM18.7816 56.5894C18.1324 55.4649 18.5177 54.0271 19.6421 53.3779L18.6421 51.6459C16.5611 52.8473 15.8481 55.5084 17.0495 57.5894L18.7816 56.5894Z" fill="#E0BD89"/>
<path d="M13.174 59.7429C10.7572 55.5569 12.1914 50.2044 16.3774 47.7876C20.5633 45.3709 25.9159 46.8051 28.3326 50.991" stroke="#E0BD89" stroke-width="2" stroke-linecap="round"/>
</svg>
