<svg width="80" height="80" viewBox="0 0 80 80" fill="none" xmlns="http://www.w3.org/2000/svg">
<rect opacity="0.2" x="5" y="4.99951" width="70" height="70" rx="35" fill="#E0BD89"/>
<path d="M73.2221 62.6849C73.2221 62.1326 72.7744 61.6849 72.2221 61.6849C71.6699 61.6849 71.2221 62.1326 71.2221 62.6849H73.2221ZM73.2221 46.4812C73.2221 45.9289 72.7744 45.4812 72.2221 45.4812C71.6699 45.4812 71.2221 45.9289 71.2221 46.4812H73.2221ZM71.2221 54.583C71.2221 55.1353 71.6699 55.583 72.2221 55.583C72.7744 55.583 73.2221 55.1353 73.2221 54.583H71.2221ZM71.2221 37.8392C71.2221 38.3915 71.6699 38.8392 72.2221 38.8392C72.7744 38.8392 73.2221 38.3915 73.2221 37.8392H71.2221ZM11.7776 2.11072H68.2221V0.110718H11.7776V2.11072ZM68.2221 77.8886H11.7776V79.8886H68.2221V77.8886ZM8.77759 74.8886V5.11072H6.77759V74.8886H8.77759ZM71.2221 62.6849V74.8886H73.2221V62.6849H71.2221ZM71.2221 46.4812V54.583H73.2221V46.4812H71.2221ZM71.2221 5.11072V37.8392H73.2221V5.11072H71.2221ZM11.7776 77.8886C10.1207 77.8886 8.77759 76.5455 8.77759 74.8886H6.77759C6.77759 77.6501 9.01616 79.8886 11.7776 79.8886V77.8886ZM68.2221 79.8886C70.9836 79.8886 73.2221 77.6501 73.2221 74.8886H71.2221C71.2221 76.5455 69.879 77.8886 68.2221 77.8886V79.8886ZM68.2221 2.11072C69.879 2.11072 71.2221 3.45386 71.2221 5.11072H73.2221C73.2221 2.34929 70.9836 0.110718 68.2221 0.110718V2.11072ZM11.7776 0.110718C9.01616 0.110718 6.77759 2.3493 6.77759 5.11072H8.77759C8.77759 3.45387 10.1207 2.11072 11.7776 2.11072V0.110718Z" fill="#E0BD89"/>
<path d="M8.07097 6.66626H5.11108C2.90195 6.66626 1.11108 8.45712 1.11108 10.6663V69.333C1.11108 71.5422 2.90195 73.333 5.11109 73.333H8.07097M72.4692 73.333H74.889C77.0981 73.333 78.889 71.5422 78.889 69.333V10.6663C78.889 8.45712 77.0981 6.66626 74.889 6.66626H72.4692" stroke="#E0BD89" stroke-width="2"/>
<path d="M61.1112 47.7775H17.7778" stroke="#E0BD89" stroke-width="2" stroke-linecap="round"/>
<path d="M68.5104 10.5257H57.1609M62.8357 16.2004L62.8357 4.85083" stroke="#E0BD89" stroke-width="2" stroke-linecap="round"/>
<path d="M61.1112 54.4442H17.7778" stroke="#E0BD89" stroke-width="2" stroke-linecap="round"/>
<rect x="17.1689" y="61.7218" width="44.6667" height="9.11113" rx="3" stroke="#E0BD89" stroke-width="2"/>
<path d="M57.4824 23.333C57.4824 32.9881 49.6554 40.8152 40.0002 40.8152C30.3451 40.8152 22.5181 32.9881 22.5181 23.333C22.5181 13.6779 30.3451 5.85083 40.0002 5.85083C49.6554 5.85083 57.4824 13.6779 57.4824 23.333Z" stroke="#E0BD89" stroke-width="2"/>
<path d="M40 10.5256C35.229 10.5256 31.3613 14.3179 31.3613 18.9958C31.3613 21.3705 32.7704 22.9769 34.3759 24.5149C34.4684 23.4364 34.6728 21.5369 36.4006 20.4075C36.8805 21.3487 39.1361 23.2309 44.3193 23.2309C43.8394 22.2898 42.8796 20.1252 42.8796 18.9958C43.3172 19.937 44.9251 21.9604 47.8554 22.5251C48.3583 21.4507 48.6387 20.2554 48.6387 18.9958C48.6387 14.3179 44.771 10.5256 40 10.5256Z" stroke="#E0BD89" stroke-width="2" stroke-linejoin="round"/>
<path d="M32.5729 21.6725C30.6669 23.1265 30.9665 26.3153 33.7792 27.4441C33.8559 29.2524 36.1055 33.2659 39.8379 33.2659C43.5703 33.2659 45.8198 29.2524 45.8966 27.4441C48.7093 26.3153 49.0089 23.1265 47.1028 21.6725" stroke="#E0BD89" stroke-width="2" stroke-linejoin="round"/>
<path d="M37.1462 32.7537L36.8376 36.377C35.655 36.4457 32.9039 36.7807 31.3613 37.5716M42.8538 32.7537L43.1624 36.377C44.345 36.4457 47.096 36.7807 48.6387 37.5716" stroke="#E0BD89" stroke-width="2" stroke-linecap="round"/>
</svg>
